<svg width="704" height="119" viewBox="0 0 704 119" fill="none" xmlns="http://www.w3.org/2000/svg">
	<path
		d="M91.2492 101.079C89.4774 100.607 87.6926 100.114 85.79 99.5759C70.6874 95.2754 56.585 90.2066 43.8818 84.4944C42.9338 84.0742 41.9204 83.6081 40.7567 83.0697C40.5082 82.9515 40.2532 82.8333 40.0048 82.7151L39.9656 82.7742C39.8544 82.7217 39.7498 82.6757 39.6517 82.6298C37.7819 81.7565 35.9643 80.8767 34.1991 79.9969L18.8807 103.069C18.6061 103.483 18.9003 104.034 19.3972 104.034H103.109C100.33 103.391 97.5387 102.708 94.747 101.999C93.4133 101.651 92.3018 101.362 91.2492 101.079Z"
		fill="#EAEAEA" />
	<path
		d="M157.224 48.2779C168.528 53.4648 178.067 59.6366 184.788 65.6836C192.444 72.5842 196.432 79.3141 195.176 84.2384C194.274 87.7904 190.933 90.5349 185.657 92.4587C185.239 92.6097 184.807 92.7607 184.369 92.9051L123.109 0.275776C122.86 -0.0919048 122.318 -0.0919048 122.076 0.275776L109.359 19.5002C109.216 19.7038 109.216 19.9795 109.359 20.1831L114.394 27.8125C114.642 28.1801 115.178 28.1801 115.427 27.8125L122.076 17.7669C122.318 17.3992 122.86 17.3992 123.102 17.7669L173.117 93.391C173.392 93.8047 173.098 94.3562 172.601 94.3562H120.206C119.709 94.3562 119.415 94.9077 119.689 95.3279L124.684 102.813L125.318 103.758C125.436 103.929 125.626 104.034 125.835 104.034H188.828C189.475 104.034 190.123 103.955 190.75 103.804C190.757 103.798 190.77 103.798 190.783 103.798C190.796 103.798 190.816 103.798 190.829 103.785C190.927 103.758 191.025 103.739 191.116 103.712C191.685 103.561 192.247 103.41 192.797 103.253C201.263 100.784 206.683 96.9102 208.01 91.6708C211.201 79.1696 190.293 62.276 157.224 48.2779Z"
		fill="#EAEAEA" />
	<path
		d="M87.7383 60.4573C87.4638 60.0436 87.7645 59.4856 88.2549 59.4856H125.515C126.011 59.4856 126.306 58.934 126.031 58.5204L108.974 32.7302L106.43 28.8761L87.6403 0.466182C87.3918 0.0919357 86.8492 0.0919357 86.6073 0.466182L47.8111 59.4856L43.1103 66.5766C41.9662 65.9725 40.8417 65.3685 39.7564 64.7644C22.8361 55.3688 13.1992 45.6122 15.1344 38.0156C17.1939 29.9004 33.0876 24.3458 54.8917 24.3458C58.468 24.3458 62.2011 24.4968 66.0585 24.8054C64.5548 24.6478 63.0707 24.5099 61.6062 24.3786C60.1744 24.2604 58.7556 24.1488 57.3565 24.0503C56.8204 24.0109 56.2843 23.9781 55.7547 23.9452C54.3621 23.8599 52.9826 23.7877 51.6293 23.7351C50.7074 23.6957 49.7986 23.6629 48.8964 23.6367C47.9942 23.6104 47.0985 23.5907 46.2158 23.5776C45.3267 23.5644 44.4571 23.5579 43.5876 23.5579C23.7776 23.5579 9.02146 26.9458 2.99347 33.5443C2.87579 33.6691 2.76465 33.8004 2.6535 33.9252C1.5159 35.2711 0.724806 36.7419 0.319453 38.3439C-2.26957 48.5077 11.0548 61.5603 33.8853 73.6085C34.9902 74.1994 36.1213 74.7772 37.2719 75.3615C39.1418 76.2938 41.0574 77.2262 43.0384 78.1519C43.0384 78.1519 43.0515 78.1585 43.0646 78.1651C44.0518 78.6247 45.0586 79.0843 46.0785 79.5439C58.1738 84.9803 72.1257 90.0491 87.2611 94.3562C89.0394 94.8617 90.8308 95.3542 92.6353 95.84C93.7794 96.1421 94.9301 96.4441 96.0873 96.7395C98.5456 97.3698 100.991 97.9673 103.416 98.5385C103.789 98.6239 104.162 98.7093 104.528 98.7946C104.685 98.834 104.842 98.8734 104.999 98.9062C105.371 98.9916 105.737 99.0769 106.103 99.1557C106.881 99.333 107.659 99.5103 108.437 99.6744C108.974 99.7926 109.516 99.9108 110.052 100.029C110.137 100.042 110.222 100.062 110.307 100.081C110.955 100.219 111.602 100.351 112.243 100.489C113.092 100.666 113.949 100.837 114.792 101.001L87.7383 60.4573Z"
		fill="#EAEAEA" />
	<path
		d="M249.331 27.26H262.621V37H264.731C265.961 34.37 268.151 31.91 271.311 29.63C274.471 27.35 279.161 26.21 285.391 26.21C290.301 26.21 294.671 27.31 298.491 29.5C302.311 31.69 305.311 34.79 307.511 38.78C309.701 42.77 310.801 47.58 310.801 53.19V92.15H297.241V54.24C297.241 48.63 295.831 44.48 293.031 41.8C290.221 39.12 286.361 37.79 281.451 37.79C275.831 37.79 271.341 39.63 267.961 43.32C264.581 47.01 262.891 52.36 262.891 59.38V92.15H249.331V27.26Z"
		fill="#EAEAEA" />
	<path
		d="M354.761 93.99C348.181 93.99 342.431 92.61 337.521 89.84C332.601 87.08 328.771 83.17 326.001 78.13C323.241 73.09 321.851 67.23 321.851 60.56V58.98C321.851 52.22 323.211 46.32 325.931 41.28C328.651 36.24 332.441 32.33 337.311 29.57C342.181 26.81 347.821 25.42 354.221 25.42C360.621 25.42 365.911 26.8 370.611 29.57C375.301 32.33 378.971 36.17 381.601 41.09C384.231 46.01 385.551 51.75 385.551 58.33V63.46H335.671C335.841 69.17 337.751 73.71 341.401 77.08C345.041 80.46 349.581 82.15 355.021 82.15C360.111 82.15 363.951 81.01 366.541 78.73C369.131 76.45 371.121 73.82 372.531 70.83L383.721 76.62C382.491 79.08 380.711 81.67 378.391 84.39C376.061 87.11 373.011 89.39 369.241 91.23C365.471 93.07 360.641 93.99 354.761 93.99ZM335.811 53.06H371.741C371.391 48.15 369.631 44.31 366.481 41.54C363.321 38.78 359.191 37.39 354.111 37.39C349.031 37.39 344.871 38.77 341.671 41.54C338.471 44.3 336.511 48.14 335.811 53.06Z"
		fill="#EAEAEA" />
	<path
		d="M396.611 27.26H409.901V36.6H412.011C413.681 33.7 416.201 31.12 419.581 28.83C422.961 26.55 427.811 25.41 434.121 25.41C439.561 25.41 444.541 26.73 449.061 29.36C453.581 31.99 457.221 35.79 459.981 40.75C462.741 45.71 464.131 51.7 464.131 58.72V60.69C464.131 67.71 462.771 73.7 460.051 78.66C457.331 83.62 453.691 87.41 449.131 90.05C444.571 92.68 439.561 94 434.131 94C429.921 94 426.361 93.47 423.471 92.42C420.571 91.37 418.251 90.03 416.491 88.41C414.731 86.79 413.331 85.1 412.281 83.34H410.171V118.48H396.611V27.26ZM430.171 82.14C436.141 82.14 441.011 80.25 444.781 76.48C448.551 72.71 450.441 67.31 450.441 60.29V59.11C450.441 52.18 448.531 46.83 444.711 43.05C440.891 39.28 436.041 37.39 430.171 37.39C424.301 37.39 419.571 39.28 415.761 43.05C411.941 46.82 410.031 52.18 410.031 59.11V60.29C410.031 67.31 411.941 72.71 415.761 76.48C419.581 80.25 424.381 82.14 430.171 82.14Z"
		fill="#EAEAEA" />
	<path
		d="M495.851 93.99C491.201 93.99 487.051 93.2 483.411 91.62C479.771 90.04 476.871 87.72 474.721 84.64C472.571 81.57 471.501 77.84 471.501 73.45C471.501 69.06 472.571 65.27 474.721 62.33C476.871 59.39 479.811 57.18 483.541 55.68C487.271 54.19 491.501 53.44 496.241 53.44H515.981V49.23C515.981 45.46 514.841 42.43 512.561 40.15C510.281 37.87 506.771 36.73 502.031 36.73C497.291 36.73 493.821 37.83 491.371 40.02C488.911 42.21 487.291 45.07 486.501 48.57L473.861 44.49C474.911 40.98 476.601 37.8 478.931 34.95C481.251 32.1 484.351 29.8 488.211 28.04C492.071 26.29 496.721 25.41 502.161 25.41C510.581 25.41 517.211 27.56 522.031 31.86C526.861 36.16 529.271 42.26 529.271 50.16V76.88C529.271 79.51 530.501 80.83 532.961 80.83H538.491V92.15H528.361C525.291 92.15 522.791 91.36 520.861 89.78C518.931 88.2 517.961 86.05 517.961 83.33V82.93H515.991C515.291 84.25 514.231 85.78 512.831 87.54C511.421 89.3 509.361 90.81 506.641 92.08C503.921 93.35 500.321 93.99 495.851 93.99ZM497.821 82.8C503.261 82.8 507.651 81.24 510.981 78.13C514.311 75.02 515.981 70.74 515.981 65.3V63.98H497.031C493.431 63.98 490.541 64.75 488.341 66.28C486.151 67.82 485.051 70.08 485.051 73.06C485.051 76.04 486.191 78.41 488.471 80.17C490.751 81.93 493.871 82.8 497.811 82.8H497.821Z"
		fill="#EAEAEA" />
	<path
		d="M543.501 92.14L568.251 59.37L544.031 27.25H559.961L576.941 50.55H579.051L596.031 27.25H612.091L587.741 59.37L612.491 92.14H596.301L579.061 68.32H576.951L559.711 92.14H543.501Z"
		fill="#EAEAEA" />
	<path
		d="M628.661 18.44C626.031 18.44 623.811 17.58 622.011 15.87C620.211 14.16 619.311 11.94 619.311 9.22C619.311 6.5 620.211 4.28 622.011 2.57C623.811 0.86 626.021 0 628.661 0C631.301 0 633.621 0.86 635.371 2.57C637.121 4.28 638.001 6.5 638.001 9.22C638.001 11.94 637.121 14.16 635.371 15.87C633.611 17.58 631.381 18.44 628.661 18.44ZM621.821 92.15V27.26H635.381V92.15H621.821Z"
		fill="#EAEAEA" />
	<path
		d="M676.831 93.99C668.581 93.99 661.741 92.15 656.301 88.46C650.861 84.77 647.521 79.2 646.301 71.74L658.941 68.71C659.641 72.31 660.831 75.16 662.491 77.27C664.161 79.38 666.241 80.87 668.741 81.74C671.241 82.62 673.941 83.06 676.831 83.06C681.131 83.06 684.441 82.23 686.771 80.56C689.091 78.89 690.261 76.74 690.261 74.11C690.261 71.48 689.161 69.55 686.971 68.32C684.781 67.09 681.531 66.08 677.231 65.29L672.751 64.5C668.361 63.71 664.371 62.57 660.771 61.08C657.171 59.59 654.321 57.53 652.221 54.89C650.111 52.26 649.061 48.88 649.061 44.76C649.061 38.62 651.341 33.86 655.901 30.48C660.461 27.1 666.521 25.41 674.061 25.41C681.601 25.41 687.331 27.06 692.031 30.35C696.721 33.64 699.771 38.1 701.181 43.71L688.541 47.26C687.751 43.31 686.081 40.53 683.541 38.9C680.991 37.28 677.831 36.47 674.061 36.47C670.291 36.47 667.481 37.15 665.371 38.51C663.261 39.87 662.211 41.78 662.211 44.24C662.211 46.87 663.241 48.8 665.301 50.03C667.361 51.26 670.151 52.18 673.661 52.79L678.271 53.58C682.921 54.37 687.181 55.47 691.041 56.87C694.901 58.28 697.951 60.29 700.191 62.92C702.431 65.55 703.551 69.06 703.551 73.45C703.551 79.95 701.131 84.99 696.311 88.59C691.481 92.19 684.991 93.99 676.831 93.99Z"
		fill="#EAEAEA" />
</svg>