<svg width="53" height="27" viewBox="0 0 53 27" fill="none" xmlns="http://www.w3.org/2000/svg">
<path d="M23.2141 26.2332C22.7633 26.1105 22.3093 25.9827 21.8253 25.843C17.9831 24.7269 14.3954 23.4114 11.1637 21.9289C10.9225 21.8198 10.6647 21.6988 10.3686 21.5591C10.3054 21.5284 10.2405 21.4978 10.1773 21.4671L10.1674 21.4824C10.1391 21.4688 10.1125 21.4569 10.0875 21.4449C9.61183 21.2183 9.14944 20.99 8.70036 20.7616L4.8033 26.7495C4.73345 26.8569 4.80829 27 4.9347 27H26.2313C25.5244 26.833 24.8142 26.6558 24.1039 26.4718C23.7646 26.3814 23.4819 26.3065 23.2141 26.2332Z" fill="white"/>
<path d="M39.9982 12.5296C42.874 13.8757 45.3007 15.4775 47.0106 17.0469C48.9582 18.8378 49.9728 20.5844 49.6535 21.8624C49.424 22.7843 48.574 23.4966 47.2318 23.9958C47.1253 24.035 47.0155 24.0742 46.9041 24.1117L41.9492 16.4675L31.3192 0.0715683C31.256 -0.0238561 31.118 -0.0238561 31.0564 0.0715683L27.8214 5.0609C27.7848 5.11373 27.7848 5.1853 27.8214 5.23812L29.1021 7.21818C29.1653 7.3136 29.3017 7.3136 29.3649 7.21818L31.0564 4.61104C31.118 4.51562 31.256 4.51562 31.3176 4.61104L44.0416 24.2378C44.1115 24.3452 44.0366 24.4883 43.9102 24.4883H30.5807C30.4543 24.4883 30.3795 24.6314 30.4493 24.7405L31.7201 26.6831L31.8814 26.9284C31.9113 26.9727 31.9596 27 32.0128 27H48.0385C48.2031 27 48.3678 26.9796 48.5275 26.9404C48.5291 26.9387 48.5324 26.9387 48.5358 26.9387C48.5391 26.9387 48.5441 26.9387 48.5474 26.9352C48.5724 26.9284 48.5973 26.9233 48.6206 26.9165C48.7653 26.8773 48.9083 26.8381 49.0481 26.7972C51.202 26.1565 52.5809 25.1512 52.9185 23.7914C53.7302 20.5469 48.411 16.1625 39.9982 12.5296Z" fill="white"/>
<path d="M22.3209 15.6905C22.251 15.5831 22.3276 15.4383 22.4523 15.4383H31.9313C32.0577 15.4383 32.1326 15.2952 32.0627 15.1878L27.7232 8.49448L27.0762 7.49423L22.296 0.120985C22.2328 0.0238561 22.0947 0.0238561 22.0332 0.120985L12.1633 15.4383L10.9674 17.2786C10.6763 17.1219 10.3902 16.9651 10.1141 16.8083C5.80959 14.3699 3.35792 11.8377 3.85025 9.8662C4.37418 7.76005 8.4176 6.31846 13.9646 6.31846C14.8744 6.31846 15.8242 6.35765 16.8055 6.43774C16.4229 6.39684 16.0454 6.36106 15.6728 6.32698C15.3085 6.29631 14.9476 6.26734 14.5917 6.24178C14.4553 6.23156 14.3189 6.22304 14.1842 6.21452C13.8299 6.19236 13.4789 6.17362 13.1346 6.15999C12.9001 6.14976 12.6689 6.14124 12.4394 6.13443C12.2099 6.12761 11.982 6.1225 11.7575 6.11909C11.5312 6.11568 11.31 6.11398 11.0888 6.11398C6.0491 6.11398 2.29509 6.99325 0.761549 8.70577C0.73161 8.73815 0.703334 8.77223 0.675059 8.80461C0.385649 9.15393 0.184393 9.53563 0.0812699 9.9514C-0.577387 12.5892 2.81237 15.9768 8.62052 19.1036C8.90161 19.257 9.18936 19.4069 9.48209 19.5586C9.95779 19.8006 10.4451 20.0425 10.9491 20.2828C10.9491 20.2828 10.9524 20.2845 10.9558 20.2862C11.2069 20.4055 11.4631 20.5248 11.7225 20.6441C14.7996 22.055 18.349 23.3705 22.1995 24.4883C22.6519 24.6195 23.1076 24.7473 23.5667 24.8734C23.8578 24.9518 24.1505 25.0302 24.4449 25.1068C25.0703 25.2704 25.6924 25.4255 26.3094 25.5737C26.4042 25.5959 26.4991 25.618 26.5922 25.6402C26.6321 25.6504 26.672 25.6606 26.712 25.6692C26.8068 25.6913 26.8999 25.7135 26.993 25.7339C27.191 25.7799 27.3889 25.8259 27.5868 25.8685C27.7232 25.8992 27.8613 25.9299 27.9977 25.9606C28.0193 25.964 28.0409 25.9691 28.0625 25.9742C28.2272 26.01 28.3919 26.0441 28.5549 26.0798C28.7711 26.1258 28.989 26.1701 29.2035 26.2127L22.3209 15.6905Z" fill="white"/>
</svg>
