<svg width="300" height="300" viewBox="0 0 300 300" fill="none" xmlns="http://www.w3.org/2000/svg">
<g clip-path="url(#clip0_382_1694)">
<path d="M218.591 206.542L210.306 209.093L184.186 196.533L192.532 167.504L200.822 164.943L199.161 170.693L192.472 193.982L211.952 203.349L218.591 206.542Z" stroke="#B5B5B5" stroke-width="0.5" stroke-linejoin="round"/>
<path d="M218.591 206.542L211.952 203.349L192.472 193.982L199.161 170.693L200.822 164.943L226.927 177.508L218.591 206.542Z" fill="url(#paint0_radial_382_1694)" stroke="#B5B5B5" stroke-width="0.5" stroke-linejoin="round"/>
<path d="M179.882 241.526L171.607 244.058L158.697 218.789L158.687 218.784L159.183 215.035L159.197 214.982L159.275 214.359L180.416 201.678L188.691 199.122L181.356 203.536L172.067 209.106L165.372 213.124L178.884 239.592L178.923 239.659L179.618 241.011L179.882 241.526Z" stroke="#B5B5B5" stroke-width="0.5" stroke-linejoin="round"/>
<path d="M203.183 227.515L201.244 228.69L186.448 237.576L179.882 241.526L179.618 241.011L178.923 239.659L178.884 239.592L165.372 213.124L172.067 209.106L181.356 203.536L188.691 199.123L203.183 227.515Z" fill="url(#paint1_radial_382_1694)" stroke="#B5B5B5" stroke-width="0.5" stroke-linejoin="round"/>
<path d="M155.28 244.602L147.004 247.134L119.807 239.407L123.881 208.686L132.146 206.125L131.517 210.855L128.073 236.871L147.619 242.433L155.28 244.602Z" stroke="#B5B5B5" stroke-width="0.5" stroke-linejoin="round"/>
<path d="M155.28 244.602L147.62 242.433L128.073 236.871L131.517 210.855L132.147 206.125L159.334 213.871L159.275 214.359L159.197 214.982L159.183 215.035L158.687 218.784L158.697 218.789L155.28 244.602Z" fill="url(#paint2_radial_382_1694)" stroke="#B5B5B5" stroke-width="0.5" stroke-linejoin="round"/>
<path d="M126.734 202.128L105.985 220.521L103.931 217.574L87.8786 194.68L102.43 181.789L108.633 176.301L126.734 202.128Z" fill="url(#paint3_radial_382_1694)" stroke="#B5B5B5" stroke-width="0.5" stroke-linejoin="round"/>
<path d="M105.985 220.521L97.7236 223.072L79.6323 197.25L100.386 178.871L108.633 176.301L102.43 181.789L87.8787 194.68L103.931 217.574L105.985 220.521Z" stroke="#B5B5B5" stroke-width="0.5" stroke-linejoin="round"/>
<path d="M106.441 169.45L98.1565 168.622L78.8863 166.708L78.5917 138.528L78.549 135.115L106.099 137.867L106.441 169.45Z" fill="url(#paint4_radial_382_1694)" stroke="#B5B5B5" stroke-width="0.5" stroke-linejoin="round"/>
<path d="M106.441 169.45L98.1846 172.015L70.6399 169.278L70.3075 137.7L78.549 135.115L78.5918 138.528L78.8863 166.708L98.1566 168.622L106.441 169.45Z" stroke="#B5B5B5" stroke-width="0.5" stroke-linejoin="round"/>
<path d="M108.151 131.444L99.9001 134.024L78.7158 111.48L96.2846 89.2493L104.545 86.6499L99.6515 92.8298L86.9621 108.886L104.779 127.849L108.151 131.444Z" stroke="#B5B5B5" stroke-width="0.5" stroke-linejoin="round"/>
<path d="M125.715 109.199L108.151 131.444L104.779 127.849L86.9619 108.886L99.6513 92.8299L104.545 86.65L122.29 105.542L124.81 108.225L124.829 108.258L125.214 108.652L125.219 108.666L125.715 109.199Z" fill="url(#paint5_radial_382_1694)" stroke="#B5B5B5" stroke-width="0.5" stroke-linejoin="round"/>
<path d="M142.321 107.181C136.679 107.857 130.982 108.206 125.219 108.666L125.209 108.661L142.321 107.181Z" stroke="#B5B5B5" stroke-width="0.5" stroke-linejoin="round"/>
<path d="M158.122 103.937L149.563 104.67L138.755 105.595C142.336 105.168 145.923 104.876 149.558 104.607C152.401 104.382 155.255 104.186 158.122 103.937Z" stroke="#B5B5B5" stroke-width="0.5" stroke-linejoin="round"/>
<path d="M158.122 103.937L149.851 106.531L142.321 107.181L125.214 108.652L124.829 108.258L124.81 108.224L122.29 105.541L118.039 77.3037L126.295 74.6899L126.375 75.2107L126.578 76.5852L131.046 106.265L138.726 105.605L138.755 105.595L149.573 104.674L158.122 103.937Z" stroke="#B5B5B5" stroke-width="0.5" stroke-linejoin="round"/>
<path d="M158.122 103.937L149.563 104.67L138.755 105.595C142.336 105.168 145.923 104.876 149.558 104.607C152.401 104.382 155.255 104.186 158.122 103.937Z" stroke="#B5B5B5" stroke-width="0.5" stroke-linejoin="round"/>
<path d="M158.122 103.937C155.254 104.186 152.401 104.382 149.558 104.607C145.933 104.88 142.336 105.168 138.755 105.595L138.736 105.586L131.051 106.256L126.583 76.5758L126.375 75.2109L126.304 74.6949L134.081 74.0342L153.37 72.386L158.131 103.942L158.122 103.937Z" fill="url(#paint6_radial_382_1694)" stroke="#B5B5B5" stroke-width="0.5" stroke-linejoin="round"/>
<path d="M149.573 104.675L138.765 105.6C142.346 105.173 145.933 104.88 149.568 104.612L149.583 104.68L149.573 104.675Z" stroke="#B5B5B5" stroke-width="0.5" stroke-linejoin="round"/>
<path d="M187.847 124.56L179.567 127.15L155.907 108.488L169.797 82.9677L178.073 80.3634L174.595 86.747L164.178 105.893L183.035 120.762L187.847 124.56Z" stroke="#B5B5B5" stroke-width="0.5" stroke-linejoin="round"/>
<path d="M201.727 99.0357L187.847 124.56L183.034 120.762L164.178 105.893L174.595 86.7474L178.072 80.3637L201.727 99.0357Z" fill="url(#paint7_radial_382_1694)" stroke="#B5B5B5" stroke-width="0.5" stroke-linejoin="round"/>
<path d="M267.802 192.107L259.507 194.653L232.149 190.36L233.147 159.064L241.451 156.498L241.328 160.346L240.444 187.814L259.62 190.824L267.802 192.107Z" stroke="#B5B5B5" stroke-width="0.5" stroke-linejoin="round"/>
<path d="M267.801 192.107L259.62 190.824L240.444 187.814L241.328 160.346L241.451 156.498L268.794 160.796L267.801 192.107Z" fill="url(#paint8_radial_382_1694)" stroke="#B5B5B5" stroke-width="0.5" stroke-linejoin="round"/>
<path d="M251.729 240.174L243.434 242.697L218.613 226.566L230.217 199.38L238.511 196.834L235.859 203.058L226.908 224.02L246.077 236.492L251.729 240.174Z" stroke="#B5B5B5" stroke-width="0.5" stroke-linejoin="round"/>
<path d="M251.728 240.174L246.076 236.492L226.908 224.019L235.859 203.058L238.511 196.833L263.313 212.979L251.728 240.174Z" fill="url(#paint9_radial_382_1694)" stroke="#B5B5B5" stroke-width="0.5" stroke-linejoin="round"/>
<path d="M219.947 275.366L211.657 277.879L194.497 254.055L194.452 253.901L194.399 253.911L193.312 252.402L213.687 233.644L221.981 231.097L215.9 236.705L201.602 249.865L217.724 272.276L219.947 275.366Z" stroke="#B5B5B5" stroke-width="0.5" stroke-linejoin="round"/>
<path d="M240.321 256.584L219.947 275.366L217.723 272.276L201.602 249.865L215.9 236.705L221.981 231.097L240.321 256.584Z" fill="url(#paint10_radial_382_1694)" stroke="#B5B5B5" stroke-width="0.5" stroke-linejoin="round"/>
<path d="M203.411 284.707C200.649 285.549 197.887 286.367 195.115 287.181C192.768 287.866 190.406 288.556 188.053 289.227L173.452 293.386L169.171 294.6L160.203 263.789L168.489 261.262L168.503 261.305L168.528 261.426L177.442 292.078L185.941 289.655L186.264 289.562L195.071 287.051C197.847 286.252 200.624 285.477 203.401 284.678L203.411 284.707Z" stroke="#B5B5B5" stroke-width="0.5" stroke-linejoin="round"/>
<path d="M203.41 284.707C200.638 285.496 197.857 286.281 195.08 287.08L186.273 289.591L185.95 289.684L177.452 292.107L168.538 261.455L168.513 261.334L168.498 261.291L176.963 258.888L177.315 258.785L190.171 255.139L194.409 253.94L194.501 254.069L203.415 284.721L203.41 284.707Z" fill="url(#paint11_radial_382_1694)" stroke="#B5B5B5" stroke-width="0.5" stroke-linejoin="round"/>
<path d="M195.125 287.21L188.058 289.218C190.415 288.537 192.772 287.857 195.12 287.171L195.125 287.21Z" stroke="#B5B5B5" stroke-width="0.5" stroke-linejoin="round"/>
<path d="M158.38 292.85L150.109 295.372L122.663 290.157L124.555 258.879L132.816 256.352L132.564 260.414L130.934 287.635L150.352 291.33L158.38 292.85Z" stroke="#B5B5B5" stroke-width="0.5" stroke-linejoin="round"/>
<path d="M158.38 292.85L150.352 291.33L130.934 287.635L132.563 260.414L132.816 256.352L160.252 261.586L158.38 292.85Z" fill="url(#paint12_radial_382_1694)" stroke="#B5B5B5" stroke-width="0.5" stroke-linejoin="round"/>
<path d="M112.351 279.698L104.084 282.21L79.5138 265.204L91.9848 238.433L100.236 235.901L97.3231 242.142L87.7653 262.673L106.983 275.975L112.351 279.698Z" stroke="#B5B5B5" stroke-width="0.5" stroke-linejoin="round"/>
<path d="M112.351 279.698L106.983 275.975L87.7653 262.673L97.3232 242.142L100.236 235.902L124.798 252.927L112.351 279.698Z" fill="url(#paint13_radial_382_1694)" stroke="#B5B5B5" stroke-width="0.5" stroke-linejoin="round"/>
<path d="M72.6335 247.255L64.3772 249.797L46.5831 223.665L67.6682 205.665L75.9292 203.114L69.6051 208.506L54.8395 221.123L70.6916 244.4L72.6335 247.255Z" stroke="#B5B5B5" stroke-width="0.5" stroke-linejoin="round"/>
<path d="M93.6991 229.247L72.6335 247.256L70.6916 244.4L54.8395 221.124L69.6051 208.506L75.9292 203.114L93.6991 229.247Z" fill="url(#paint14_radial_382_1694)" stroke="#B5B5B5" stroke-width="0.5" stroke-linejoin="round"/>
<path d="M56.1683 198.673C49.9146 200.251 43.6119 201.709 37.3143 203.23L56.1683 198.673Z" stroke="#B5B5B5" stroke-width="0.5" stroke-linejoin="round"/>
<path d="M71.9218 194.299L63.6704 196.855L56.1675 198.673L37.3232 203.234L29.1648 172.148L37.4016 169.573L37.4317 169.732L37.5406 170.122L45.5649 200.673L53.5308 198.747L63.5316 196.33L71.9218 194.299Z" stroke="#B5B5B5" stroke-width="0.5" stroke-linejoin="round"/>
<path d="M71.9228 194.299C69.1357 194.973 66.3244 195.647 63.5324 196.306C60.1956 197.118 56.8539 197.916 53.5414 198.752L45.5611 200.683L37.5368 170.132L37.4423 169.737L37.3978 169.583L45.3492 167.661L63.7644 163.213L71.9228 194.299Z" fill="url(#paint15_radial_382_1694)" stroke="#B5B5B5" stroke-width="0.5" stroke-linejoin="round"/>
<path d="M62.9314 153.625L54.6898 156.21L27.2416 149.948L30.0038 118.858L38.2356 116.269L37.8455 120.659L35.4784 147.373C42.014 148.868 48.5543 150.354 55.0753 151.854C57.6972 152.446 60.3144 153.048 62.9363 153.64L62.9314 153.625Z" stroke="#B5B5B5" stroke-width="0.5" stroke-linejoin="round"/>
<path d="M62.9315 153.625C60.3096 153.033 57.6924 152.431 55.0705 151.839C48.535 150.344 41.9947 148.859 35.4736 147.359L37.8407 120.644L38.2308 116.254L65.6936 122.535L62.9315 153.625Z" fill="url(#paint16_radial_382_1694)" stroke="#B5B5B5" stroke-width="0.5" stroke-linejoin="round"/>
<path d="M68.1397 113.721L59.9078 116.31L35.7174 98.4089L48.951 72.2655L57.1827 69.6519L53.9804 75.9904L43.9395 95.8147C50.3282 100.545 56.7168 105.275 63.1006 109.991C64.7755 111.236 66.46 112.485 68.1397 113.721Z" stroke="#B5B5B5" stroke-width="0.5" stroke-linejoin="round"/>
<path d="M81.3685 87.5626L68.1398 113.72C66.4649 112.476 64.7803 111.226 63.1007 109.991C56.7217 105.265 50.3331 100.535 43.9396 95.8145L53.9805 75.9902L57.1828 69.6517L81.3685 87.5626Z" fill="url(#paint17_radial_382_1694)" stroke="#B5B5B5" stroke-width="0.5" stroke-linejoin="round"/>
<path d="M86.7369 80.907L78.4955 83.5158L61.3932 56.8339L82.9726 39.7871L91.2235 37.1588L84.6324 42.3595L69.6249 54.2203L85.0817 78.3007L86.7369 80.907Z" stroke="#B5B5B5" stroke-width="0.5" stroke-linejoin="round"/>
<path d="M108.311 63.8214L86.737 80.9068L85.0818 78.3006L69.625 54.2201L84.6326 42.3594L91.2236 37.1587L107.291 62.225L107.465 62.9963L107.745 62.9415L108.311 63.8214Z" fill="url(#paint18_radial_382_1694)" stroke="#B5B5B5" stroke-width="0.5" stroke-linejoin="round"/>
<path d="M134.896 23.8735L116.553 27.5386C122.63 26.2222 128.766 25.1033 134.896 23.8735Z" stroke="#B5B5B5" stroke-width="0.5" stroke-linejoin="round"/>
<path d="M142.22 55.0663C139.389 55.634 136.567 56.1822 133.74 56.7402C130.451 57.383 127.171 58.0306 123.906 58.7457L115.73 60.3888L108.626 30.1217L108.466 29.4421L108.402 29.1818L116.549 27.5486L134.892 23.8835L142.22 55.0663Z" fill="url(#paint19_radial_382_1694)" stroke="#B5B5B5" stroke-width="0.5" stroke-linejoin="round"/>
<path d="M142.22 55.0661L133.964 57.6799L125.779 59.3182L107.744 62.9428L107.735 62.9139L107.29 62.2263L100.156 31.8002L108.397 29.1671L108.457 29.4371L108.621 30.1071L115.725 60.3741L123.911 58.7359L133.74 56.7641L142.22 55.0661Z" stroke="#B5B5B5" stroke-width="0.5" stroke-linejoin="round"/>
<path d="M177.714 62.6163L169.444 65.235L142.24 57.9868L145.806 27.22L154.071 24.5868L153.534 29.2774L150.496 55.373L169.987 60.5589L177.714 62.6163Z" stroke="#B5B5B5" stroke-width="0.5" stroke-linejoin="round"/>
<path d="M177.714 62.6163L169.986 60.5589L150.496 55.3729L153.534 29.2774L154.071 24.5868L181.275 31.8592L177.714 62.6163Z" fill="url(#paint20_radial_382_1694)" stroke="#B5B5B5" stroke-width="0.5" stroke-linejoin="round"/>
<g filter="url(#filter0_d_382_1694)">
<path d="M209.201 85.2852L200.912 87.8944L177.276 69.2319L191.147 43.7507L199.432 41.1271L195.945 47.5301L185.556 66.6179L204.398 81.4914L209.201 85.2852Z" stroke="#B5B5B5" stroke-width="0.5" stroke-linejoin="round"/>
<path d="M223.062 59.7991L209.201 85.285L204.398 81.4912L185.556 66.6178L195.945 47.5299L199.432 41.1269L223.062 59.7991Z" fill="url(#paint21_radial_382_1694)" stroke="#B5B5B5" stroke-width="0.5" stroke-linejoin="round"/>
</g>
</g>
<defs>
<filter id="filter0_d_382_1694" x="155.126" y="18.977" width="90.0861" height="91.0676" filterUnits="userSpaceOnUse" color-interpolation-filters="sRGB">
<feFlood flood-opacity="0" result="BackgroundImageFix"/>
<feColorMatrix in="SourceAlpha" type="matrix" values="0 0 0 0 0 0 0 0 0 0 0 0 0 0 0 0 0 0 127 0" result="hardAlpha"/>
<feOffset/>
<feGaussianBlur stdDeviation="10.95"/>
<feComposite in2="hardAlpha" operator="out"/>
<feColorMatrix type="matrix" values="0 0 0 0 0.796078 0 0 0 0 0.909804 0 0 0 0 0.588235 0 0 0 0.5 0"/>
<feBlend mode="normal" in2="BackgroundImageFix" result="effect1_dropShadow_382_1694"/>
<feBlend mode="normal" in="SourceGraphic" in2="effect1_dropShadow_382_1694" result="shape"/>
</filter>
<radialGradient id="paint0_radial_382_1694" cx="0" cy="0" r="1" gradientUnits="userSpaceOnUse" gradientTransform="translate(217.525 212.38) rotate(26.1934) scale(53.9014 53.8517)">
<stop stop-color="#E8E8E8" stop-opacity="0.5"/>
<stop offset="0.05" stop-color="#CCCCCC" stop-opacity="0.54"/>
<stop offset="0.17" stop-color="#929292" stop-opacity="0.64"/>
<stop offset="0.3" stop-color="#646464" stop-opacity="0.71"/>
<stop offset="0.46" stop-color="#444444" stop-opacity="0.76"/>
<stop offset="0.65" stop-color="#313131" stop-opacity="0.79"/>
<stop offset="1" stop-color="#2C2C2C" stop-opacity="0.8"/>
</radialGradient>
<radialGradient id="paint1_radial_382_1694" cx="0" cy="0" r="1" gradientUnits="userSpaceOnUse" gradientTransform="translate(206.831 227.806) rotate(26.1934) scale(45.5839 45.542)">
<stop stop-color="#E8E8E8" stop-opacity="0.5"/>
<stop offset="0.05" stop-color="#CCCCCC" stop-opacity="0.54"/>
<stop offset="0.17" stop-color="#929292" stop-opacity="0.64"/>
<stop offset="0.3" stop-color="#646464" stop-opacity="0.71"/>
<stop offset="0.46" stop-color="#444444" stop-opacity="0.76"/>
<stop offset="0.65" stop-color="#313131" stop-opacity="0.79"/>
<stop offset="1" stop-color="#2C2C2C" stop-opacity="0.8"/>
</radialGradient>
<radialGradient id="paint2_radial_382_1694" cx="0" cy="0" r="1" gradientUnits="userSpaceOnUse" gradientTransform="translate(157.821 248.173) rotate(26.1934) scale(50.0991 50.053)">
<stop stop-color="#E8E8E8" stop-opacity="0.5"/>
<stop offset="0.05" stop-color="#CCCCCC" stop-opacity="0.54"/>
<stop offset="0.17" stop-color="#929292" stop-opacity="0.64"/>
<stop offset="0.3" stop-color="#646464" stop-opacity="0.71"/>
<stop offset="0.46" stop-color="#444444" stop-opacity="0.76"/>
<stop offset="0.65" stop-color="#313131" stop-opacity="0.79"/>
<stop offset="1" stop-color="#2C2C2C" stop-opacity="0.8"/>
</radialGradient>
<radialGradient id="paint3_radial_382_1694" cx="0" cy="0" r="1" gradientUnits="userSpaceOnUse" gradientTransform="translate(108.55 229.793) rotate(26.1934) scale(59.4319 59.3772)">
<stop stop-color="#E8E8E8" stop-opacity="0.5"/>
<stop offset="0.05" stop-color="#CCCCCC" stop-opacity="0.54"/>
<stop offset="0.17" stop-color="#929292" stop-opacity="0.64"/>
<stop offset="0.3" stop-color="#646464" stop-opacity="0.71"/>
<stop offset="0.46" stop-color="#444444" stop-opacity="0.76"/>
<stop offset="0.65" stop-color="#313131" stop-opacity="0.79"/>
<stop offset="1" stop-color="#2C2C2C" stop-opacity="0.8"/>
</radialGradient>
<radialGradient id="paint4_radial_382_1694" cx="0" cy="0" r="1" gradientUnits="userSpaceOnUse" gradientTransform="translate(77.0148 133.266) rotate(26.1934) scale(37.4177 37.3833)">
<stop stop-color="#E8E8E8" stop-opacity="0.5"/>
<stop offset="0.05" stop-color="#CCCCCC" stop-opacity="0.54"/>
<stop offset="0.17" stop-color="#929292" stop-opacity="0.64"/>
<stop offset="0.3" stop-color="#646464" stop-opacity="0.71"/>
<stop offset="0.46" stop-color="#444444" stop-opacity="0.76"/>
<stop offset="0.65" stop-color="#313131" stop-opacity="0.79"/>
<stop offset="1" stop-color="#2C2C2C" stop-opacity="0.8"/>
</radialGradient>
<radialGradient id="paint5_radial_382_1694" cx="0" cy="0" r="1" gradientUnits="userSpaceOnUse" gradientTransform="translate(84.685 100.838) rotate(26.1934) scale(41.9545 41.9159)">
<stop stop-color="#E8E8E8" stop-opacity="0.5"/>
<stop offset="0.05" stop-color="#CCCCCC" stop-opacity="0.54"/>
<stop offset="0.17" stop-color="#929292" stop-opacity="0.64"/>
<stop offset="0.3" stop-color="#646464" stop-opacity="0.71"/>
<stop offset="0.46" stop-color="#444444" stop-opacity="0.76"/>
<stop offset="0.65" stop-color="#313131" stop-opacity="0.79"/>
<stop offset="1" stop-color="#2C2C2C" stop-opacity="0.8"/>
</radialGradient>
<radialGradient id="paint6_radial_382_1694" cx="0" cy="0" r="1" gradientUnits="userSpaceOnUse" gradientTransform="translate(126.012 70.8348) rotate(26.1934) scale(40.3018 40.2647)">
<stop stop-color="#E8E8E8" stop-opacity="0.5"/>
<stop offset="0.05" stop-color="#CCCCCC" stop-opacity="0.54"/>
<stop offset="0.17" stop-color="#929292" stop-opacity="0.64"/>
<stop offset="0.3" stop-color="#646464" stop-opacity="0.71"/>
<stop offset="0.46" stop-color="#444444" stop-opacity="0.76"/>
<stop offset="0.65" stop-color="#313131" stop-opacity="0.79"/>
<stop offset="1" stop-color="#2C2C2C" stop-opacity="0.8"/>
</radialGradient>
<radialGradient id="paint7_radial_382_1694" cx="0" cy="0" r="1" gradientUnits="userSpaceOnUse" gradientTransform="translate(177.98 78.1293) rotate(26.1934) scale(37.6554 37.6207)">
<stop stop-color="#E8E8E8" stop-opacity="0.5"/>
<stop offset="0.05" stop-color="#CCCCCC" stop-opacity="0.54"/>
<stop offset="0.17" stop-color="#929292" stop-opacity="0.64"/>
<stop offset="0.3" stop-color="#646464" stop-opacity="0.71"/>
<stop offset="0.46" stop-color="#444444" stop-opacity="0.76"/>
<stop offset="0.65" stop-color="#313131" stop-opacity="0.79"/>
<stop offset="1" stop-color="#2C2C2C" stop-opacity="0.8"/>
</radialGradient>
<radialGradient id="paint8_radial_382_1694" cx="0" cy="0" r="1" gradientUnits="userSpaceOnUse" gradientTransform="translate(265.597 196.735) rotate(26.1934) scale(42.0733 42.0346)">
<stop stop-color="#E8E8E8" stop-opacity="0.5"/>
<stop offset="0.05" stop-color="#CCCCCC" stop-opacity="0.54"/>
<stop offset="0.17" stop-color="#929292" stop-opacity="0.64"/>
<stop offset="0.3" stop-color="#646464" stop-opacity="0.71"/>
<stop offset="0.46" stop-color="#444444" stop-opacity="0.76"/>
<stop offset="0.65" stop-color="#313131" stop-opacity="0.79"/>
<stop offset="1" stop-color="#2C2C2C" stop-opacity="0.8"/>
</radialGradient>
<radialGradient id="paint9_radial_382_1694" cx="0" cy="0" r="1" gradientUnits="userSpaceOnUse" gradientTransform="translate(256.95 248.672) rotate(26.1934) scale(62.0244 61.9673)">
<stop stop-color="#E8E8E8" stop-opacity="0.5"/>
<stop offset="0.05" stop-color="#CCCCCC" stop-opacity="0.54"/>
<stop offset="0.17" stop-color="#929292" stop-opacity="0.64"/>
<stop offset="0.3" stop-color="#646464" stop-opacity="0.71"/>
<stop offset="0.46" stop-color="#444444" stop-opacity="0.76"/>
<stop offset="0.65" stop-color="#313131" stop-opacity="0.79"/>
<stop offset="1" stop-color="#2C2C2C" stop-opacity="0.8"/>
</radialGradient>
<radialGradient id="paint10_radial_382_1694" cx="0" cy="0" r="1" gradientUnits="userSpaceOnUse" gradientTransform="translate(230.627 286.056) rotate(26.1934) scale(60.3501 60.2945)">
<stop stop-color="#E8E8E8" stop-opacity="0.5"/>
<stop offset="0.05" stop-color="#CCCCCC" stop-opacity="0.54"/>
<stop offset="0.17" stop-color="#929292" stop-opacity="0.64"/>
<stop offset="0.3" stop-color="#646464" stop-opacity="0.71"/>
<stop offset="0.46" stop-color="#444444" stop-opacity="0.76"/>
<stop offset="0.65" stop-color="#313131" stop-opacity="0.79"/>
<stop offset="1" stop-color="#2C2C2C" stop-opacity="0.8"/>
</radialGradient>
<radialGradient id="paint11_radial_382_1694" cx="0" cy="0" r="1" gradientUnits="userSpaceOnUse" gradientTransform="translate(196.983 305.359) rotate(26.1934) scale(54.7655 54.7151)">
<stop stop-color="#E8E8E8" stop-opacity="0.5"/>
<stop offset="0.05" stop-color="#CCCCCC" stop-opacity="0.54"/>
<stop offset="0.17" stop-color="#929292" stop-opacity="0.64"/>
<stop offset="0.3" stop-color="#646464" stop-opacity="0.71"/>
<stop offset="0.46" stop-color="#444444" stop-opacity="0.76"/>
<stop offset="0.65" stop-color="#313131" stop-opacity="0.79"/>
<stop offset="1" stop-color="#2C2C2C" stop-opacity="0.8"/>
</radialGradient>
<radialGradient id="paint12_radial_382_1694" cx="0" cy="0" r="1" gradientUnits="userSpaceOnUse" gradientTransform="translate(159.645 311.813) rotate(26.1934) scale(76.4341 76.3638)">
<stop stop-color="#E8E8E8" stop-opacity="0.5"/>
<stop offset="0.05" stop-color="#CCCCCC" stop-opacity="0.54"/>
<stop offset="0.17" stop-color="#929292" stop-opacity="0.64"/>
<stop offset="0.3" stop-color="#646464" stop-opacity="0.71"/>
<stop offset="0.46" stop-color="#444444" stop-opacity="0.76"/>
<stop offset="0.65" stop-color="#313131" stop-opacity="0.79"/>
<stop offset="1" stop-color="#2C2C2C" stop-opacity="0.8"/>
</radialGradient>
<radialGradient id="paint13_radial_382_1694" cx="0" cy="0" r="1" gradientUnits="userSpaceOnUse" gradientTransform="translate(111.887 293.145) rotate(26.1934) scale(66.2695 66.2085)">
<stop stop-color="#E8E8E8" stop-opacity="0.5"/>
<stop offset="0.05" stop-color="#CCCCCC" stop-opacity="0.54"/>
<stop offset="0.17" stop-color="#929292" stop-opacity="0.64"/>
<stop offset="0.3" stop-color="#646464" stop-opacity="0.71"/>
<stop offset="0.46" stop-color="#444444" stop-opacity="0.76"/>
<stop offset="0.65" stop-color="#313131" stop-opacity="0.79"/>
<stop offset="1" stop-color="#2C2C2C" stop-opacity="0.8"/>
</radialGradient>
<radialGradient id="paint14_radial_382_1694" cx="0" cy="0" r="1" gradientUnits="userSpaceOnUse" gradientTransform="translate(70.843 262.96) rotate(26.1934) scale(77.2226 77.1515)">
<stop stop-color="#E8E8E8" stop-opacity="0.5"/>
<stop offset="0.05" stop-color="#CCCCCC" stop-opacity="0.54"/>
<stop offset="0.17" stop-color="#929292" stop-opacity="0.64"/>
<stop offset="0.3" stop-color="#646464" stop-opacity="0.71"/>
<stop offset="0.46" stop-color="#444444" stop-opacity="0.76"/>
<stop offset="0.65" stop-color="#313131" stop-opacity="0.79"/>
<stop offset="1" stop-color="#2C2C2C" stop-opacity="0.8"/>
</radialGradient>
<radialGradient id="paint15_radial_382_1694" cx="0" cy="0" r="1" gradientUnits="userSpaceOnUse" gradientTransform="translate(43.6318 211.653) rotate(26.1934) scale(56.9799 56.9275)">
<stop stop-color="#E8E8E8" stop-opacity="0.5"/>
<stop offset="0.05" stop-color="#CCCCCC" stop-opacity="0.54"/>
<stop offset="0.17" stop-color="#929292" stop-opacity="0.64"/>
<stop offset="0.3" stop-color="#646464" stop-opacity="0.71"/>
<stop offset="0.46" stop-color="#444444" stop-opacity="0.76"/>
<stop offset="0.65" stop-color="#313131" stop-opacity="0.79"/>
<stop offset="1" stop-color="#2C2C2C" stop-opacity="0.8"/>
</radialGradient>
<radialGradient id="paint16_radial_382_1694" cx="0" cy="0" r="1" gradientUnits="userSpaceOnUse" gradientTransform="translate(19.9513 150.355) rotate(26.1934) scale(69.8234 69.7591)">
<stop stop-color="#E8E8E8" stop-opacity="0.5"/>
<stop offset="0.05" stop-color="#CCCCCC" stop-opacity="0.54"/>
<stop offset="0.17" stop-color="#929292" stop-opacity="0.64"/>
<stop offset="0.3" stop-color="#646464" stop-opacity="0.71"/>
<stop offset="0.46" stop-color="#444444" stop-opacity="0.76"/>
<stop offset="0.65" stop-color="#313131" stop-opacity="0.79"/>
<stop offset="1" stop-color="#2C2C2C" stop-opacity="0.8"/>
</radialGradient>
<radialGradient id="paint17_radial_382_1694" cx="0" cy="0" r="1" gradientUnits="userSpaceOnUse" gradientTransform="translate(28.7653 82.6372) rotate(26.1934) scale(58.449 58.3952)">
<stop stop-color="#E8E8E8" stop-opacity="0.5"/>
<stop offset="0.05" stop-color="#CCCCCC" stop-opacity="0.54"/>
<stop offset="0.17" stop-color="#929292" stop-opacity="0.64"/>
<stop offset="0.3" stop-color="#646464" stop-opacity="0.71"/>
<stop offset="0.46" stop-color="#444444" stop-opacity="0.76"/>
<stop offset="0.65" stop-color="#313131" stop-opacity="0.79"/>
<stop offset="1" stop-color="#2C2C2C" stop-opacity="0.8"/>
</radialGradient>
<radialGradient id="paint18_radial_382_1694" cx="0" cy="0" r="1" gradientUnits="userSpaceOnUse" gradientTransform="translate(61.7329 45.7676) rotate(26.1934) scale(55.0896 55.0389)">
<stop stop-color="#E8E8E8" stop-opacity="0.5"/>
<stop offset="0.05" stop-color="#CCCCCC" stop-opacity="0.54"/>
<stop offset="0.17" stop-color="#929292" stop-opacity="0.64"/>
<stop offset="0.3" stop-color="#646464" stop-opacity="0.71"/>
<stop offset="0.46" stop-color="#444444" stop-opacity="0.76"/>
<stop offset="0.65" stop-color="#313131" stop-opacity="0.79"/>
<stop offset="1" stop-color="#2C2C2C" stop-opacity="0.8"/>
</radialGradient>
<radialGradient id="paint19_radial_382_1694" cx="0" cy="0" r="1" gradientUnits="userSpaceOnUse" gradientTransform="translate(104.284 11.8819) rotate(26.1934) scale(62.8885 62.8307)">
<stop stop-color="#E8E8E8" stop-opacity="0.5"/>
<stop offset="0.05" stop-color="#CCCCCC" stop-opacity="0.54"/>
<stop offset="0.17" stop-color="#929292" stop-opacity="0.64"/>
<stop offset="0.3" stop-color="#646464" stop-opacity="0.71"/>
<stop offset="0.46" stop-color="#444444" stop-opacity="0.76"/>
<stop offset="0.65" stop-color="#313131" stop-opacity="0.79"/>
<stop offset="1" stop-color="#2C2C2C" stop-opacity="0.8"/>
</radialGradient>
<radialGradient id="paint20_radial_382_1694" cx="0" cy="0" r="1" gradientUnits="userSpaceOnUse" gradientTransform="translate(152.484 14.9178) rotate(26.1934) scale(59.1835 59.129)">
<stop stop-color="#E8E8E8" stop-opacity="0.5"/>
<stop offset="0.05" stop-color="#CCCCCC" stop-opacity="0.54"/>
<stop offset="0.17" stop-color="#929292" stop-opacity="0.64"/>
<stop offset="0.3" stop-color="#646464" stop-opacity="0.71"/>
<stop offset="0.46" stop-color="#444444" stop-opacity="0.76"/>
<stop offset="0.65" stop-color="#313131" stop-opacity="0.79"/>
<stop offset="1" stop-color="#2C2C2C" stop-opacity="0.8"/>
</radialGradient>
<radialGradient id="paint21_radial_382_1694" cx="0" cy="0" r="1" gradientUnits="userSpaceOnUse" gradientTransform="translate(225.854 58.0718) rotate(168.419) scale(43.9798 33.9195)">
<stop stop-color="#CBE896" stop-opacity="0.5"/>
<stop offset="1" stop-color="#2C2C2C" stop-opacity="0.8"/>
</radialGradient>
<clipPath id="clip0_382_1694">
<rect width="300" height="300" fill="white"/>
</clipPath>
</defs>
</svg>
