<svg width="300" height="300" viewBox="0 0 300 300" fill="none" xmlns="http://www.w3.org/2000/svg">
<g clip-path="url(#clip0_382_1664)">
<path d="M164.024 81.6318L131.523 118.688L88.27 93.7751L120.837 57.0215L164.024 81.6318Z" fill="url(#paint0_radial_382_1664)"/>
<path d="M164.024 81.6318L131.523 118.688L88.27 93.7751L120.837 57.0215M164.024 81.6318L120.837 57.0215M164.024 81.6318V81.621M120.837 57.0215L88.27 93.7643M88.27 93.7643L89.4068 102.918L132.659 127.798L165.031 90.8067L164.024 81.621M88.27 93.7643L131.523 118.677L164.024 81.621" stroke="#B5B5B5" stroke-width="0.5" stroke-linejoin="round"/>
<path d="M221.233 114.122L188.731 151.178L145.489 126.254L178.045 89.5117L221.233 114.122Z" fill="url(#paint1_radial_382_1664)"/>
<path d="M145.479 126.255L146.615 135.408L189.868 160.288L222.24 123.297L221.233 114.111M145.479 126.255L188.731 151.167L221.233 114.111M145.479 126.255L178.034 89.501L221.222 114.111H221.233M221.233 114.122L188.731 151.178L145.479 126.265L178.034 89.5118L221.222 114.122H221.233Z" stroke="#B5B5B5" stroke-width="0.5" stroke-linejoin="round"/>
<path d="M120.155 131.22L87.6534 168.265L44.4116 143.352L76.9675 106.599L120.155 131.22Z" fill="url(#paint2_radial_382_1664)"/>
<path d="M120.155 131.22L87.6534 168.265L44.4116 143.352L76.9675 106.599L120.155 131.22Z" fill="url(#paint3_radial_382_1664)"/>
<path d="M44.4004 143.352L45.5372 152.506L88.7898 177.386L121.162 140.395L120.155 131.209M44.4004 143.352L87.653 168.265L120.155 131.209M44.4004 143.352L76.9563 106.599L120.144 131.209H120.155M120.155 131.22L87.653 168.276L44.4004 143.363L76.9563 106.609L120.144 131.22H120.155Z" stroke="#B5B5B5" stroke-width="0.5" stroke-linejoin="round"/>
<path d="M278.452 146.612L245.95 183.657L202.697 158.744L235.253 121.991L278.452 146.612Z" fill="url(#paint4_radial_382_1664)"/>
<path d="M278.452 146.612L245.95 183.657L202.697 158.744L235.253 121.991L278.452 146.612Z" fill="url(#paint5_radial_382_1664)"/>
<path d="M202.697 158.744L203.834 167.898L247.087 192.778L279.459 155.787L278.452 146.601M202.697 158.744L245.95 183.657L278.452 146.601M202.697 158.744L235.253 121.991L278.441 146.601H278.452M278.452 146.612L245.95 183.668L202.697 158.755L235.253 122.002L278.441 146.612H278.452Z" stroke="#B5B5B5" stroke-width="0.5" stroke-linejoin="round"/>
<path d="M76.2959 180.796L43.7942 217.841L0.541504 192.929L33.0974 156.175L76.2959 180.796Z" fill="url(#paint6_radial_382_1664)"/>
<path d="M76.2959 180.796L43.7942 217.841L0.541504 192.929L33.0974 156.175L76.2959 180.796Z" fill="url(#paint7_radial_382_1664)"/>
<path d="M0.541504 192.929L43.7942 217.852L76.2959 180.796L76.2851 180.786M0.541504 192.929L33.0974 156.175L76.2851 180.786M0.541504 192.929L1.67831 202.082L44.931 226.962L77.3028 189.971L76.2959 180.786M0.541504 192.929L43.7942 217.841L76.2959 180.786M76.2851 180.786H76.2959" stroke="#B5B5B5" stroke-width="0.5" stroke-linejoin="round"/>
<path d="M177.373 163.699L144.871 200.755L101.619 175.831L134.175 139.088L177.373 163.699Z" fill="url(#paint8_radial_382_1664)"/>
<path d="M101.619 175.831L102.755 184.985L146.008 209.865L178.38 172.874L177.373 163.688M101.619 175.831L144.871 200.744L177.373 163.688M101.619 175.831L134.175 139.078L177.362 163.688H177.373M177.373 163.699L144.871 200.755L101.619 175.842L134.175 139.088L177.362 163.699H177.373Z" stroke="#B5B5B5" stroke-width="0.5" stroke-linejoin="round"/>
<path d="M133.504 213.275L101.002 250.331L57.7495 225.419L90.3162 188.665L133.504 213.275Z" fill="url(#paint9_radial_382_1664)"/>
<path d="M57.7495 225.408L58.8863 234.561L102.139 259.441L134.511 222.45L133.504 213.265M57.7495 225.408L101.002 250.32L133.504 213.265M57.7495 225.408L90.3054 188.654L133.493 213.265H133.504M133.504 213.275L101.002 250.331L57.7495 225.419L90.3054 188.665L133.493 213.275H133.504Z" stroke="#B5B5B5" stroke-width="0.5" stroke-linejoin="round"/>
<path d="M190.723 245.766L158.211 282.822L114.969 257.899L147.525 221.156L190.723 245.766Z" fill="url(#paint10_radial_382_1664)"/>
<path d="M190.723 245.766L158.211 282.822L114.969 257.899L147.525 221.156L190.723 245.766Z" fill="url(#paint11_radial_382_1664)"/>
<path d="M114.969 257.899L116.106 267.052L159.358 291.932L191.73 254.941L190.723 245.755M114.969 257.899L158.221 282.811L190.723 245.755M114.969 257.899L147.525 221.145L190.712 245.755H190.723M190.723 245.766L158.221 282.822L114.969 257.909L147.525 221.156L190.712 245.766H190.723Z" stroke="#B5B5B5" stroke-width="0.5" stroke-linejoin="round"/>
<g filter="url(#filter0_d_382_1664)">
<path d="M234.582 196.188L202.08 233.233L158.828 208.321L191.394 171.567L234.582 196.188Z" fill="url(#paint12_radial_382_1664)"/>
<path d="M158.828 208.321L159.964 217.474L203.217 242.354L235.589 205.363L234.582 196.178M158.828 208.321L202.08 233.233L234.582 196.178M158.828 208.321L191.384 171.567L234.571 196.178H234.582M234.582 196.188L202.08 233.244L158.828 208.332L191.384 171.578L234.571 196.188H234.582Z" stroke="#B5B5B5" stroke-width="0.5" stroke-linejoin="round"/>
</g>
</g>
<defs>
<filter id="filter0_d_382_1664" x="136.678" y="159.417" width="121.061" height="115.087" filterUnits="userSpaceOnUse" color-interpolation-filters="sRGB">
<feFlood flood-opacity="0" result="BackgroundImageFix"/>
<feColorMatrix in="SourceAlpha" type="matrix" values="0 0 0 0 0 0 0 0 0 0 0 0 0 0 0 0 0 0 127 0" result="hardAlpha"/>
<feOffset dy="10"/>
<feGaussianBlur stdDeviation="10.95"/>
<feComposite in2="hardAlpha" operator="out"/>
<feColorMatrix type="matrix" values="0 0 0 0 0.796078 0 0 0 0 0.909804 0 0 0 0 0.588235 0 0 0 0.5 0"/>
<feBlend mode="normal" in2="BackgroundImageFix" result="effect1_dropShadow_382_1664"/>
<feBlend mode="normal" in="SourceGraphic" in2="effect1_dropShadow_382_1664" result="shape"/>
</filter>
<radialGradient id="paint0_radial_382_1664" cx="0" cy="0" r="1" gradientUnits="userSpaceOnUse" gradientTransform="translate(111.331 41.9207) scale(96.7582 96.466)">
<stop stop-color="#E8E8E8" stop-opacity="0.5"/>
<stop offset="0.05" stop-color="#CCCCCC" stop-opacity="0.54"/>
<stop offset="0.17" stop-color="#929292" stop-opacity="0.64"/>
<stop offset="0.3" stop-color="#646464" stop-opacity="0.71"/>
<stop offset="0.46" stop-color="#444444" stop-opacity="0.76"/>
<stop offset="0.65" stop-color="#313131" stop-opacity="0.79"/>
<stop offset="1" stop-color="#2C2C2C" stop-opacity="0.8"/>
</radialGradient>
<radialGradient id="paint1_radial_382_1664" cx="0" cy="0" r="1" gradientUnits="userSpaceOnUse" gradientTransform="translate(168.539 74.4109) scale(96.7582 96.466)">
<stop stop-color="#E8E8E8" stop-opacity="0.5"/>
<stop offset="0.05" stop-color="#CCCCCC" stop-opacity="0.54"/>
<stop offset="0.17" stop-color="#929292" stop-opacity="0.64"/>
<stop offset="0.3" stop-color="#646464" stop-opacity="0.71"/>
<stop offset="0.46" stop-color="#444444" stop-opacity="0.76"/>
<stop offset="0.65" stop-color="#313131" stop-opacity="0.79"/>
<stop offset="1" stop-color="#2C2C2C" stop-opacity="0.8"/>
</radialGradient>
<radialGradient id="paint2_radial_382_1664" cx="0" cy="0" r="1" gradientUnits="userSpaceOnUse" gradientTransform="translate(67.4617 91.4978) scale(0.541335 0.5397)">
<stop stop-color="#E8E8E8" stop-opacity="0.5"/>
<stop offset="0.05" stop-color="#CCCCCC" stop-opacity="0.54"/>
<stop offset="0.17" stop-color="#929292" stop-opacity="0.64"/>
<stop offset="0.3" stop-color="#646464" stop-opacity="0.71"/>
<stop offset="0.46" stop-color="#444444" stop-opacity="0.76"/>
<stop offset="0.65" stop-color="#313131" stop-opacity="0.79"/>
<stop offset="1" stop-color="#2C2C2C" stop-opacity="0.8"/>
</radialGradient>
<radialGradient id="paint3_radial_382_1664" cx="0" cy="0" r="1" gradientUnits="userSpaceOnUse" gradientTransform="translate(67.4617 91.4978) scale(96.7582 96.466)">
<stop stop-color="#E8E8E8" stop-opacity="0.5"/>
<stop offset="0.05" stop-color="#CCCCCC" stop-opacity="0.54"/>
<stop offset="0.17" stop-color="#929292" stop-opacity="0.64"/>
<stop offset="0.3" stop-color="#646464" stop-opacity="0.71"/>
<stop offset="0.46" stop-color="#444444" stop-opacity="0.76"/>
<stop offset="0.65" stop-color="#313131" stop-opacity="0.79"/>
<stop offset="1" stop-color="#2C2C2C" stop-opacity="0.8"/>
</radialGradient>
<radialGradient id="paint4_radial_382_1664" cx="0" cy="0" r="1" gradientUnits="userSpaceOnUse" gradientTransform="translate(225.758 106.89) scale(0.541335 0.5397)">
<stop stop-color="#E8E8E8" stop-opacity="0.5"/>
<stop offset="0.05" stop-color="#CCCCCC" stop-opacity="0.54"/>
<stop offset="0.17" stop-color="#929292" stop-opacity="0.64"/>
<stop offset="0.3" stop-color="#646464" stop-opacity="0.71"/>
<stop offset="0.46" stop-color="#444444" stop-opacity="0.76"/>
<stop offset="0.65" stop-color="#313131" stop-opacity="0.79"/>
<stop offset="1" stop-color="#2C2C2C" stop-opacity="0.8"/>
</radialGradient>
<radialGradient id="paint5_radial_382_1664" cx="0" cy="0" r="1" gradientUnits="userSpaceOnUse" gradientTransform="translate(225.751 106.89) scale(96.772 96.466)">
<stop stop-color="#E8E8E8" stop-opacity="0.5"/>
<stop offset="0.05" stop-color="#CCCCCC" stop-opacity="0.54"/>
<stop offset="0.17" stop-color="#929292" stop-opacity="0.64"/>
<stop offset="0.3" stop-color="#646464" stop-opacity="0.71"/>
<stop offset="0.46" stop-color="#444444" stop-opacity="0.76"/>
<stop offset="0.65" stop-color="#313131" stop-opacity="0.79"/>
<stop offset="1" stop-color="#2C2C2C" stop-opacity="0.8"/>
</radialGradient>
<radialGradient id="paint6_radial_382_1664" cx="0" cy="0" r="1" gradientUnits="userSpaceOnUse" gradientTransform="translate(23.6024 141.074) scale(0.541335 0.5397)">
<stop stop-color="#E8E8E8" stop-opacity="0.5"/>
<stop offset="0.05" stop-color="#CCCCCC" stop-opacity="0.54"/>
<stop offset="0.17" stop-color="#929292" stop-opacity="0.64"/>
<stop offset="0.3" stop-color="#646464" stop-opacity="0.71"/>
<stop offset="0.46" stop-color="#444444" stop-opacity="0.76"/>
<stop offset="0.65" stop-color="#313131" stop-opacity="0.79"/>
<stop offset="1" stop-color="#2C2C2C" stop-opacity="0.8"/>
</radialGradient>
<radialGradient id="paint7_radial_382_1664" cx="0" cy="0" r="1" gradientUnits="userSpaceOnUse" gradientTransform="translate(23.6024 141.074) scale(96.7582 96.466)">
<stop stop-color="#E8E8E8" stop-opacity="0.5"/>
<stop offset="0.05" stop-color="#CCCCCC" stop-opacity="0.54"/>
<stop offset="0.17" stop-color="#929292" stop-opacity="0.64"/>
<stop offset="0.3" stop-color="#646464" stop-opacity="0.71"/>
<stop offset="0.46" stop-color="#444444" stop-opacity="0.76"/>
<stop offset="0.65" stop-color="#313131" stop-opacity="0.79"/>
<stop offset="1" stop-color="#2C2C2C" stop-opacity="0.8"/>
</radialGradient>
<radialGradient id="paint8_radial_382_1664" cx="0" cy="0" r="1" gradientUnits="userSpaceOnUse" gradientTransform="translate(124.68 123.988) scale(96.7582 96.466)">
<stop stop-color="#E8E8E8" stop-opacity="0.5"/>
<stop offset="0.05" stop-color="#CCCCCC" stop-opacity="0.54"/>
<stop offset="0.17" stop-color="#929292" stop-opacity="0.64"/>
<stop offset="0.3" stop-color="#646464" stop-opacity="0.71"/>
<stop offset="0.46" stop-color="#444444" stop-opacity="0.76"/>
<stop offset="0.65" stop-color="#313131" stop-opacity="0.79"/>
<stop offset="1" stop-color="#2C2C2C" stop-opacity="0.8"/>
</radialGradient>
<radialGradient id="paint9_radial_382_1664" cx="0" cy="0" r="1" gradientUnits="userSpaceOnUse" gradientTransform="translate(80.8104 173.564) scale(96.7582 96.466)">
<stop stop-color="#E8E8E8" stop-opacity="0.5"/>
<stop offset="0.05" stop-color="#CCCCCC" stop-opacity="0.54"/>
<stop offset="0.17" stop-color="#929292" stop-opacity="0.64"/>
<stop offset="0.3" stop-color="#646464" stop-opacity="0.71"/>
<stop offset="0.46" stop-color="#444444" stop-opacity="0.76"/>
<stop offset="0.65" stop-color="#313131" stop-opacity="0.79"/>
<stop offset="1" stop-color="#2C2C2C" stop-opacity="0.8"/>
</radialGradient>
<radialGradient id="paint10_radial_382_1664" cx="0" cy="0" r="1" gradientUnits="userSpaceOnUse" gradientTransform="translate(138.019 206.055) scale(0.541335 0.5397)">
<stop stop-color="#E8E8E8" stop-opacity="0.5"/>
<stop offset="0.05" stop-color="#CCCCCC" stop-opacity="0.54"/>
<stop offset="0.17" stop-color="#929292" stop-opacity="0.64"/>
<stop offset="0.3" stop-color="#646464" stop-opacity="0.71"/>
<stop offset="0.46" stop-color="#444444" stop-opacity="0.76"/>
<stop offset="0.65" stop-color="#313131" stop-opacity="0.79"/>
<stop offset="1" stop-color="#2C2C2C" stop-opacity="0.8"/>
</radialGradient>
<radialGradient id="paint11_radial_382_1664" cx="0" cy="0" r="1" gradientUnits="userSpaceOnUse" gradientTransform="translate(138.022 206.055) scale(96.772 96.466)">
<stop stop-color="#E8E8E8" stop-opacity="0.5"/>
<stop offset="0.05" stop-color="#CCCCCC" stop-opacity="0.54"/>
<stop offset="0.17" stop-color="#929292" stop-opacity="0.64"/>
<stop offset="0.3" stop-color="#646464" stop-opacity="0.71"/>
<stop offset="0.46" stop-color="#444444" stop-opacity="0.76"/>
<stop offset="0.65" stop-color="#313131" stop-opacity="0.79"/>
<stop offset="1" stop-color="#2C2C2C" stop-opacity="0.8"/>
</radialGradient>
<radialGradient id="paint12_radial_382_1664" cx="0" cy="0" r="1" gradientUnits="userSpaceOnUse" gradientTransform="translate(234.582 194.104) rotate(169.116) scale(77.142 69.2445)">
<stop stop-color="#CBE896" stop-opacity="0.5"/>
<stop offset="1" stop-color="#2C2C2C" stop-opacity="0.8"/>
</radialGradient>
<clipPath id="clip0_382_1664">
<rect width="280" height="236" fill="white" transform="translate(0 56.4819)"/>
</clipPath>
</defs>
</svg>
