<svg width="174" height="87" viewBox="0 0 174 87" fill="none" xmlns="http://www.w3.org/2000/svg">
<path d="M76.2123 84.5292C74.7325 84.1339 73.2417 83.7221 71.6527 83.2718C59.0388 79.6754 47.2604 75.4366 36.6505 70.6597C35.8587 70.3083 35.0124 69.9185 34.0404 69.4682C33.8329 69.3694 33.6199 69.2706 33.4124 69.1717L33.3796 69.2211C33.2868 69.1772 33.1995 69.1388 33.1175 69.1003C31.5558 68.3701 30.0378 67.6343 28.5634 66.8986L15.7693 86.1929C15.54 86.5388 15.7857 87 16.2007 87H86.1177C83.797 86.4619 81.4653 85.8909 79.1337 85.2979C78.0197 85.0069 77.0914 84.7653 76.2123 84.5292Z" fill="#151515"/>
<path d="M131.315 40.3731C140.756 44.7107 148.723 49.8719 154.337 54.9289C160.731 60.6996 164.062 66.3276 163.013 70.4456C162.26 73.416 159.469 75.7111 155.063 77.3199C154.713 77.4462 154.353 77.5725 153.987 77.6933L102.822 0.230609C102.614 -0.0768697 102.161 -0.0768697 101.959 0.230609L91.338 16.3074C91.2179 16.4776 91.2179 16.7082 91.338 16.8784L95.5427 23.2586C95.7502 23.566 96.1979 23.566 96.4054 23.2586L101.959 14.8578C102.161 14.5503 102.614 14.5503 102.816 14.8578L144.589 78.0996C144.819 78.4455 144.573 78.9067 144.158 78.9067H100.397C99.9821 78.9067 99.7364 79.3679 99.9657 79.7193L104.138 85.9787L104.667 86.7694C104.766 86.9121 104.924 87 105.099 87H157.711C158.252 87 158.792 86.9341 159.317 86.8078C159.322 86.8023 159.333 86.8023 159.344 86.8023C159.355 86.8023 159.371 86.8023 159.382 86.7914C159.464 86.7694 159.546 86.7529 159.622 86.731C160.097 86.6047 160.567 86.4784 161.026 86.3466C168.097 84.2821 172.624 81.0426 173.732 76.661C176.397 66.2067 158.934 52.0792 131.315 40.3731Z" fill="#151515"/>
<path d="M73.28 50.5583C73.0506 50.2124 73.3018 49.7457 73.7113 49.7457H104.831C105.246 49.7457 105.492 49.2844 105.262 48.9385L91.0159 27.3711L88.8917 24.1481L73.1981 0.389839C72.9906 0.0768697 72.5373 0.0768697 72.3353 0.389839L39.9323 49.7457L36.0062 55.6756C35.0506 55.1705 34.1114 54.6653 33.2049 54.1602C19.073 46.303 11.0241 38.1438 12.6404 31.7911C14.3605 25.0046 27.6351 20.3595 45.8461 20.3595C48.833 20.3595 51.951 20.4858 55.1727 20.7438C53.9168 20.6121 52.6773 20.4967 51.4541 20.3869C50.2582 20.2881 49.0733 20.1948 47.9047 20.1124C47.457 20.0795 47.0092 20.052 46.5669 20.0245C45.4038 19.9532 44.2516 19.8928 43.1213 19.8488C42.3513 19.8159 41.5923 19.7885 40.8388 19.7665C40.0852 19.7445 39.3371 19.7281 38.5999 19.7171C37.8573 19.7061 37.1311 19.7006 36.4048 19.7006C19.8593 19.7006 7.53482 22.5338 2.50018 28.0519C2.40189 28.1563 2.30906 28.2661 2.21623 28.3704C1.26609 29.496 0.605365 30.7259 0.266811 32.0656C-1.89557 40.5652 9.23305 51.4807 28.3013 61.5561C29.2242 62.0503 30.1688 62.5335 31.1299 63.0221C32.6916 63.8018 34.2916 64.5815 35.9461 65.3557C35.9461 65.3557 35.957 65.3612 35.968 65.3667C36.7925 65.751 37.6334 66.1354 38.4853 66.5197C48.5873 71.066 60.2401 75.3048 72.8813 78.9067C74.3666 79.3295 75.8628 79.7413 77.3699 80.1476C78.3255 80.4002 79.2866 80.6528 80.2531 80.8998C82.3063 81.4269 84.3485 81.9266 86.3744 82.4043C86.6856 82.4757 86.9969 82.5471 87.3027 82.6184C87.4337 82.6514 87.5648 82.6843 87.6958 82.7118C88.0071 82.7831 88.3129 82.8545 88.6187 82.9204C89.2685 83.0687 89.9183 83.2169 90.5681 83.3542C91.0159 83.453 91.4691 83.5518 91.9169 83.6507C91.9878 83.6617 92.0588 83.6781 92.1298 83.6946C92.6704 83.8099 93.211 83.9197 93.7461 84.035C94.456 84.1833 95.1714 84.326 95.8758 84.4633L73.28 50.5583Z" fill="#151515"/>
</svg>
