<svg
	width="69"
	height="19"
	viewBox="0 0 69 19"
	fill="#fff"
	xmlns="http://www.w3.org/2000/svg"
>
	<path
		d="M0 4.37154H2.01887V5.93349H2.3394C2.52625 5.51173 2.85892 5.11724 3.33895 4.7516C3.81899 4.38597 4.53144 4.20316 5.47783 4.20316C6.22371 4.20316 6.88754 4.37956 7.46783 4.73076C8.04812 5.08195 8.50386 5.57908 8.83805 6.21894C9.17074 6.85879 9.33784 7.63015 9.33784 8.52979V14.7776H7.27795V8.69818C7.27795 7.79853 7.06376 7.13302 6.63841 6.70324C6.21155 6.27346 5.62518 6.06018 4.87931 6.06018C4.02558 6.06018 3.34351 6.35525 2.83006 6.947C2.31661 7.53874 2.05989 8.39669 2.05989 9.52245V14.7776H0V4.37154Z"
		fill="#ffffff"
	/>
	<path
		d="M16.0157 15.0727C15.0162 15.0727 14.1427 14.8514 13.3968 14.4072C12.6494 13.9646 12.0676 13.3375 11.6468 12.5293C11.2276 11.7211 11.0164 10.7813 11.0164 9.71168V9.4583C11.0164 8.37424 11.223 7.42809 11.6362 6.61985C12.0494 5.81161 12.6251 5.18459 13.3649 4.74198C14.1047 4.29938 14.9615 4.07647 15.9337 4.07647C16.9059 4.07647 17.7095 4.29777 18.4235 4.74198C19.1359 5.18459 19.6935 5.80039 20.093 6.58938C20.4925 7.37838 20.693 8.29887 20.693 9.35407V10.1767H13.1158C13.1416 11.0924 13.4318 11.8205 13.9862 12.3609C14.5392 12.9029 15.2289 13.174 16.0552 13.174C16.8285 13.174 17.4118 12.9911 17.8052 12.6255C18.1987 12.2599 18.501 11.8381 18.7152 11.3586L20.415 12.2871C20.2282 12.6816 19.9578 13.097 19.6053 13.5332C19.2514 13.9694 18.7881 14.335 18.2154 14.6301C17.6427 14.9251 16.909 15.0727 16.0157 15.0727ZM13.1371 8.50895H18.5952C18.542 7.72156 18.2746 7.10576 17.7961 6.66155C17.3161 6.21894 16.6887 5.99603 15.917 5.99603C15.1453 5.99603 14.5134 6.21734 14.0273 6.66155C13.5411 7.10415 13.2434 7.71995 13.1371 8.50895Z"
		fill="#ffffff"
	/>
	<path
		d="M22.3731 4.37154H24.392V5.86934H24.7125C24.9662 5.40429 25.349 4.99055 25.8625 4.62331C26.3759 4.25768 27.1127 4.07486 28.0712 4.07486C28.8976 4.07486 29.6541 4.28655 30.3407 4.70831C31.0274 5.13006 31.5803 5.73945 31.9996 6.53486C32.4189 7.33027 32.63 8.29085 32.63 9.41661V9.73253C32.63 10.8583 32.4234 11.8189 32.0102 12.6143C31.597 13.4097 31.0441 14.0175 30.3514 14.4408C29.6587 14.8626 28.8976 15.0743 28.0727 15.0743C27.4332 15.0743 26.8924 14.9893 26.4534 14.8209C26.0129 14.6525 25.6604 14.4376 25.3931 14.1778C25.1257 13.918 24.913 13.647 24.7535 13.3648H24.433V19H22.3731V4.37154ZM27.4712 13.1723C28.3781 13.1723 29.1179 12.8693 29.6906 12.2647C30.2633 11.6601 30.5504 10.7941 30.5504 9.66838V9.47915C30.5504 8.36783 30.2602 7.50987 29.6799 6.9037C29.0996 6.29912 28.3629 5.99603 27.4712 5.99603C26.5795 5.99603 25.8609 6.29912 25.2822 6.9037C24.7019 7.50827 24.4117 8.36783 24.4117 9.47915V9.66838C24.4117 10.7941 24.7019 11.6601 25.2822 12.2647C25.8625 12.8693 26.5916 13.1723 27.4712 13.1723Z"
		fill="#ffffff"
	/>
	<path
		d="M37.4486 15.0727C36.7422 15.0727 36.1118 14.946 35.5588 14.6926C35.0059 14.4392 34.5653 14.0672 34.2387 13.5733C33.9121 13.0809 33.7496 12.4828 33.7496 11.7788C33.7496 11.0748 33.9121 10.467 34.2387 9.99553C34.5653 9.52405 35.0119 9.16965 35.5786 8.9291C36.1452 8.69016 36.7877 8.56988 37.5078 8.56988H40.5065V7.89475C40.5065 7.29018 40.3333 6.80427 39.9869 6.43864C39.6406 6.07301 39.1074 5.89019 38.3873 5.89019C37.6673 5.89019 37.1402 6.06659 36.768 6.41779C36.3943 6.76899 36.1482 7.22763 36.0282 7.78891L34.1081 7.13462C34.2676 6.57174 34.5243 6.06178 34.8783 5.60474C35.2307 5.1477 35.7016 4.77887 36.288 4.49662C36.8743 4.21599 37.5807 4.07486 38.4071 4.07486C39.6862 4.07486 40.6933 4.41965 41.4255 5.10922C42.1592 5.79878 42.5253 6.77701 42.5253 8.04389V12.3288C42.5253 12.7506 42.7122 12.9623 43.0859 12.9623H43.9259V14.7776H42.3871C41.9207 14.7776 41.541 14.6509 41.2478 14.3975C40.9546 14.1442 40.8073 13.7994 40.8073 13.3632V13.299H40.508C40.4017 13.5107 40.2406 13.7561 40.028 14.0383C39.8138 14.3206 39.5008 14.5627 39.0876 14.7664C38.6745 14.97 38.1276 15.0727 37.4486 15.0727ZM37.7478 13.2782C38.5742 13.2782 39.2411 13.028 39.7469 12.5293C40.2528 12.0306 40.5065 11.3442 40.5065 10.4718V10.2601H37.6278C37.0809 10.2601 36.6419 10.3836 36.3077 10.629C35.975 10.8759 35.8079 11.2384 35.8079 11.7162C35.8079 12.1941 35.9811 12.5742 36.3275 12.8564C36.6738 13.1387 37.1478 13.2782 37.7463 13.2782H37.7478Z"
		fill="#ffffff"
	/>
	<path
		d="M44.687 14.776L48.4467 9.52085L44.7675 4.36994H47.1874L49.7668 8.10643H50.0874L52.6668 4.36994H55.1064L51.4074 9.52085L55.1672 14.776H52.7078L50.0889 10.9561H49.7684L47.1494 14.776H44.687Z"
		fill="#ffffff"
	/>
	<path
		d="M57.6235 2.95712C57.224 2.95712 56.8868 2.81921 56.6134 2.54499C56.3399 2.27076 56.2032 1.91475 56.2032 1.47856C56.2032 1.04237 56.3399 0.686361 56.6134 0.412137C56.8868 0.137914 57.2225 0 57.6235 0C58.0246 0 58.377 0.137914 58.6429 0.412137C58.9087 0.686361 59.0424 1.04237 59.0424 1.47856C59.0424 1.91475 58.9087 2.27076 58.6429 2.54499C58.3755 2.81921 58.0367 2.95712 57.6235 2.95712ZM56.5845 14.7776V4.37154H58.6444V14.7776H56.5845Z"
		fill="#ffffff"
	/>
	<path
		d="M64.941 15.0727C63.6878 15.0727 62.6487 14.7776 61.8223 14.1859C60.9959 13.5941 60.4885 12.7009 60.3032 11.5046L62.2233 11.0187C62.3297 11.596 62.5105 12.053 62.7626 12.3914C63.0163 12.7297 63.3323 12.9687 63.7121 13.1082C64.0918 13.2493 64.502 13.3199 64.941 13.3199C65.5942 13.3199 66.097 13.1868 66.451 12.919C66.8034 12.6512 66.9811 12.3064 66.9811 11.8846C66.9811 11.4629 66.814 11.1534 66.4813 10.9561C66.1487 10.7589 65.655 10.5969 65.0018 10.4702L64.3212 10.3435C63.6543 10.2168 63.0482 10.034 62.5013 9.79507C61.9545 9.55613 61.5215 9.22578 61.2025 8.80241C60.882 8.38066 60.7225 7.83862 60.7225 7.17792C60.7225 6.19328 61.0688 5.42995 61.7615 4.88791C62.4543 4.34588 63.3748 4.07486 64.5202 4.07486C65.6656 4.07486 66.536 4.33947 67.25 4.86707C67.9625 5.39467 68.4258 6.10989 68.64 7.00954L66.7198 7.57883C66.5998 6.94539 66.3461 6.49958 65.9603 6.23818C65.5729 5.97839 65.0929 5.8485 64.5202 5.8485C63.9475 5.8485 63.5206 5.95755 63.2001 6.17564C62.8796 6.39374 62.7201 6.70003 62.7201 7.09453C62.7201 7.51629 62.8765 7.82579 63.1895 8.02304C63.5024 8.22029 63.9262 8.36783 64.4594 8.46565L65.1597 8.59234C65.8661 8.71902 66.5133 8.89542 67.0996 9.11994C67.686 9.34605 68.1493 9.66838 68.4896 10.0901C68.8299 10.5119 69 11.0748 69 11.7788C69 12.8212 68.6324 13.6294 67.9002 14.2067C67.1665 14.784 66.1806 15.0727 64.941 15.0727Z"
		fill="#ffffff"
	/>
</svg>